<svg width="1200" height="1200" viewBox="0 0 1200 1200" fill="none" xmlns="http://www.w3.org/2000/svg">
<g clip-path="url(#clip0_6632:26443)">
<mask id="mask0_6632:26443" style="mask-type:alpha" maskUnits="userSpaceOnUse" x="0" y="0" width="1200" height="1201">
<path d="M0 304.885C0 136.551 136.462 0.0898438 304.796 0.0898438H895.204C1063.54 0.0898438 1200 136.552 1200 304.886V895.294C1200 1063.63 1063.54 1200.09 895.204 1200.09H304.796C136.462 1200.09 0 1063.63 0 895.294V304.885Z" fill="white"/>
</mask>
<g mask="url(#mask0_6632:26443)">
<path d="M0 304.885C0 136.551 136.462 0.0898438 304.796 0.0898438H895.204C1063.54 0.0898438 1200 136.552 1200 304.886V895.294C1200 1063.63 1063.54 1200.09 895.204 1200.09H304.796C136.462 1200.09 0 1063.63 0 895.294V304.885Z" fill="#2EC84E"/>
<path fill-rule="evenodd" clip-rule="evenodd" d="M-200.102 1043.35C-200.102 987.032 -170.283 933.956 -117.652 913.922C39.3573 854.159 278.541 824.277 599.899 824.277C921.256 824.277 1160.44 854.159 1317.45 913.922C1370.08 933.956 1399.9 987.032 1399.9 1043.35C1399.9 1130.02 1329.64 1200.28 1242.97 1200.28H-43.1716C-129.842 1200.28 -200.102 1130.02 -200.102 1043.35Z" fill="#046A38"/>
<path fill-rule="evenodd" clip-rule="evenodd" d="M888.368 923.125C888.747 923.137 889.506 923.149 889.518 923.149C941.586 923.968 977.954 951.255 977.954 989.521C977.954 1027.78 941.586 1055.08 889.518 1055.89H888.356C887.977 1055.91 887.207 1055.89 887.207 1055.89C835.138 1055.08 798.771 1027.78 798.771 989.521C798.771 951.267 835.138 923.968 887.219 923.149C887.219 923.149 887.977 923.125 888.368 923.125ZM888.356 1034.26H888.368C926.423 1033.86 951.002 1016.31 951.002 989.51C951.002 962.721 926.423 945.154 888.356 944.763C850.301 945.154 825.722 962.721 825.722 989.51C825.722 1016.3 850.314 1033.86 888.356 1034.26ZM312.384 923.125C312.763 923.137 313.522 923.149 313.534 923.149C365.602 923.968 401.969 951.255 401.969 989.51C401.969 1027.76 365.602 1055.06 313.534 1055.88H312.372C311.993 1055.89 311.223 1055.88 311.223 1055.88C259.154 1055.06 222.787 1027.76 222.787 989.51C222.787 951.255 259.154 923.968 311.235 923.149C311.235 923.149 311.993 923.125 312.384 923.125ZM312.372 1034.26H312.384C350.427 1033.87 375.018 1016.31 375.018 989.51C375.018 962.721 350.439 945.155 312.372 944.763C274.317 945.155 249.738 962.721 249.738 989.51C249.738 1016.3 274.33 1033.87 312.372 1034.26ZM697.822 923.149C697.81 923.149 697.052 923.137 696.672 923.125C696.281 923.125 695.523 923.149 695.523 923.149C670.712 923.54 649.471 929.95 634.027 940.68V929.356H607.075V1097.37H634.027V1038.36C649.471 1049.09 670.699 1055.49 695.511 1055.88C695.511 1055.88 696.281 1055.89 696.66 1055.88H697.822C749.89 1055.06 786.257 1027.76 786.257 989.51C786.257 951.255 749.89 923.968 697.822 923.149ZM696.672 1034.26H696.66C658.618 1033.86 634.027 1016.3 634.027 989.51C634.027 962.721 658.606 945.154 696.66 944.763C734.727 945.154 759.306 962.721 759.306 989.51C759.306 1016.31 734.715 1033.86 696.672 1034.26ZM504.789 923.125C505.168 923.137 505.926 923.149 505.938 923.149C558.007 923.968 594.374 951.255 594.374 989.51C594.374 1027.76 558.007 1055.06 505.938 1055.88H504.777C504.398 1055.89 503.627 1055.88 503.627 1055.88C478.828 1055.49 457.587 1049.09 442.143 1038.36V1097.37H415.192V929.356H442.143V940.68C457.587 929.95 478.828 923.54 503.639 923.149C503.639 923.149 504.398 923.125 504.789 923.125ZM504.777 1034.26H504.789C542.831 1033.86 567.422 1016.31 567.422 989.51C567.422 962.721 542.843 945.154 504.777 944.763C466.734 945.154 442.143 962.721 442.143 989.51C442.143 1016.3 466.734 1033.86 504.777 1034.26Z" fill="white"/>
</g>
<path opacity="0.2" d="M898.004 392.611C935.631 392.611 966.133 362.047 966.133 324.345C966.133 286.642 935.631 256.078 898.004 256.078C860.377 256.078 829.875 286.642 829.875 324.345C829.875 362.047 860.377 392.611 898.004 392.611Z" fill="#171717"/>
<path opacity="0.2" d="M310.563 392.612C348.189 392.612 378.692 362.048 378.692 324.345C378.692 286.642 348.189 256.078 310.563 256.078C272.936 256.078 242.434 286.642 242.434 324.345C242.434 362.048 272.936 392.612 310.563 392.612Z" fill="#171717"/>
<path d="M866.777 328.535C823.572 436.484 719.644 508.785 605.12 508.785C487.507 508.785 384.213 436.35 342.205 326.071C335.566 308.643 315.945 299.855 298.379 306.442C280.813 313.028 271.955 332.496 278.594 349.924C330.501 486.19 458.935 576.254 605.12 576.254C747.93 576.254 876.636 486.715 929.979 353.435C936.91 336.119 928.38 316.508 910.927 309.632C893.474 302.756 873.707 311.219 866.777 328.535Z" fill="white"/>
</g>
<defs>
<clipPath id="clip0_6632:26443">
<rect width="1200" height="1200" fill="white"/>
</clipPath>
</defs>
</svg>
